<?xml version="1.0" encoding="UTF-8"?>
<svg xmlns="http://www.w3.org/2000/svg" viewBox="0 0 128 128">
  <rect width="128" height="128" rx="32" fill="#FF4500" />
  <g transform="translate(32, 32) scale(1.6)">
    <path fill="#FFFFFF" d="M37.8 17.5c-2.4 0-4.4 2-4.4 4.4 0 1.5.8 2.8 2 3.6-2.5.3-5.2.5-8.1.5s-5.6-.2-8.1-.5c1.2-.8 2-2.1 2-3.6 0-2.4-2-4.4-4.4-4.4s-4.4 2-4.4 4.4c0 1.7 1 3.2 2.4 4-2.8 2-4.7 4.7-5.3 7.6H2.9v2.2A11.7 11.7 0 0 0 .1 31c0 2.8 5.7 5 12.6 5s12.6-2.2 12.6-5a11.7 11.7 0 0 0-2.8-5.3v-2.2h-6.7c-.6-2.9-2.5-5.6-5.3-7.6 1.4-.8 2.4-2.3 2.4-4 0-2.5-2-4.5-4.5-4.5zM12.9 29.3c.9 0 1.6.7 1.6 1.6s-.7 1.6-1.6 1.6-1.6-.7-1.6-1.6.7-1.6 1.6-1.6zm14.3 0c.9 0 1.6.7 1.6 1.6s-.7 1.6-1.6 1.6-1.6-.7-1.6-1.6.7-1.6 1.6-1.6zm-12.7 4.4h9.8c.4 0 .8.3.8.8 0 .4-.4.8-.8.8h-9.8c-.4 0-.8-.4-.8-.8 0-.5.4-.8.8-.8zm4.9-18.7c-3.1 0-5.7 2.5-5.7 5.7 0 1.8.8 3.3 2 4.4 1-.6 2.3-.9 3.6-.9 1.4 0 2.6.3 3.6.9 1.2-1.1 2-2.7 2-4.4 0-3.1-2.5-5.7-5.5-5.7z"/>
  </g>
</svg>
